# xmcd
#
# Track frame offsets: 
#        150
#        19031
#        34008
#        50278
#        67956
#        87413
#        104030
#        118944
#        138551
#        154414
#        178854
#
# Disc length: 2608 seconds
#
# Revision: 1
# Processed by: cddbd v1.5.2PL0 Copyright (c) Steve Scherf et al.
# Submitted via: ExactAudioCopyFreeDBPlugin 1.0
#
DISCID=9b0a2e0b
DTITLE=盧冠廷 - BEYOND IMAGINTION
DYEAR=2015
DGENRE=Pop
TTITLE0=快樂老實人
TTITLE1=陪着你走
TTITLE2=最愛是誰
TTITLE3=世事何曾是绝對
TTITLE4=一生所愛
TTITLE5=天鳥
TTITLE6=憑著愛
TTITLE7=我會掛念你
TTITLE8=但願人長久
TTITLE9=人間天堂
TTITLE10=一生所愛
EXTD=
EXTT0=
EXTT1=
EXTT2=
EXTT3=
EXTT4=
EXTT5=
EXTT6=
EXTT7=
EXTT8=
EXTT9=
EXTT10=
PLAYORDER=
